<svg xmlns="http://www.w3.org/2000/svg" viewBox="0 0 512 512" width="512" height="512">
  <rect width="512" height="512" rx="112" fill="#FFFFFF"/>
  <defs>
    <radialGradient id="bodyGrad" cx="40%" cy="40%" r="60%">
      <stop offset="0%" stop-color="#7ED67E"/>
      <stop offset="50%" stop-color="#5BC45B"/>
      <stop offset="100%" stop-color="#3CA83C"/>
    </radialGradient>
    <radialGradient id="chestGrad" cx="50%" cy="70%" r="50%">
      <stop offset="0%" stop-color="#FFE066"/>
      <stop offset="100%" stop-color="#FFD433"/>
    </radialGradient>
    <radialGradient id="beakGrad" cx="50%" cy="30%" r="70%">
      <stop offset="0%" stop-color="#FF8C42"/>
      <stop offset="100%" stop-color="#FF6B00"/>
    </radialGradient>
    <radialGradient id="blueGrad" cx="70%" cy="70%" r="40%">
      <stop offset="0%" stop-color="#6EC6FF"/>
      <stop offset="100%" stop-color="#42A5F5"/>
    </radialGradient>
  </defs>
  <circle cx="256" cy="230" r="110" fill="url(#bodyGrad)"/>
  <ellipse cx="256" cy="300" rx="75" ry="50" fill="url(#chestGrad)"/>
  <ellipse cx="340" cy="320" rx="40" ry="35" fill="url(#blueGrad)"/>
  <ellipse cx="360" cy="380" rx="35" ry="30" fill="url(#blueGrad)"/>
  <ellipse cx="310" cy="140" rx="30" ry="25" fill="url(#bodyGrad)"/>
  <ellipse cx="200" cy="140" rx="30" ry="25" fill="url(#bodyGrad)"/>
  <circle cx="370" cy="220" rx="35" ry="30" fill="url(#bodyGrad)"/>
  <ellipse cx="200" cy="250" rx="25" ry="20" fill="url(#bodyGrad)"/>
  <circle cx="208" cy="195" r="32" fill="white"/>
  <circle cx="304" cy="195" r="32" fill="white"/>
  <circle cx="212" cy="195" r="22" fill="#1A1A1A"/>
  <circle cx="308" cy="195" r="22" fill="#1A1A1A"/>
  <circle cx="218" cy="189" r="8" fill="white"/>
  <circle cx="314" cy="189" r="8" fill="white"/>
  <path d="M256 230 L235 280 Q256 295 277 280 Z" fill="url(#beakGrad)"/>
  <circle cx="244" cy="255" r="4" fill="#4A2C0A"/>
  <circle cx="268" cy="255" r="4" fill="#4A2C0A"/>
  <ellipse cx="175" cy="225" rx="18" ry="12" fill="#FFB6C1" opacity="0.6"/>
  <ellipse cx="337" cy="225" rx="18" ry="12" fill="#FFB6C1" opacity="0.6"/>
</svg>